<svg xmlns:xlink="http://www.w3.org/1999/xlink" xmlns="http://www.w3.org/2000/svg" class="_image_1rawy_1 _cuIcon_1rawy_64 _small_1rawy_9 _leadingIcon_luqhp_29" width="24"  height="24" ><defs><symbol _ngcontent-ng-c3282799608="" id="cu3-icon-aiPrimary" viewBox="0 0 24 24" fill="none" style="color: inherit;"><path _ngcontent-ng-c3282799608="" fill="#F0F1F3" fill-rule="evenodd" d="M16.764 20.361a.532.532 0 0 0-.406.19c-1.013 1.202-2.548 1.949-4.284 1.949a5.73 5.73 0 0 1-4.709-2.46.157.157 0 0 0-.129-.068 5.736 5.736 0 0 1-5.373-7.747c.1-.27.1-.569 0-.839A5.736 5.736 0 0 1 7.236 3.64c.26 0 .509-.113.682-.307C8.931 2.198 10.422 1.5 12.101 1.5c.388 0 1.138.058 1.937.351.672.246 1.425.677 1.996 1.42a.928.928 0 0 0 .73.368 5.736 5.736 0 0 1 5.311 7.906 1.204 1.204 0 0 0 0 .91 5.736 5.736 0 0 1-5.311 7.906ZM8.503 7.103C8.427 5.049 10 3.444 12.1 3.444c.228 0 .74.04 1.268.233.476.174.407.775 0 1.075a5.68 5.68 0 0 0-.949.877.972.972 0 1 0 1.472 1.27 3.792 3.792 0 0 1 6.663 2.476c0 .397-.462.561-.801.354a5.71 5.71 0 0 0-2.99-.84c-.525 0-1.036.07-1.521.204a.972.972 0 1 0 .514 1.875 3.792 3.792 0 0 1 3.09 6.825c-.587.388-1.209-.225-1.23-.93a5 5 0 0 0-.002-.038c-.06-1.63-.772-2.745-1.77-3.605-.727-.627-1.658-1.153-2.551-1.658-.239-.135-.475-.268-.704-.402-.291-.17-.57-.327-.835-.477-.834-.472-1.539-.87-2.116-1.362-.691-.588-1.1-1.237-1.136-2.218ZM10.75 18.77c-.555.43-.684 1.287-.029 1.538.42.16.876.247 1.352.247 2.1 0 3.674-1.604 3.598-3.658-.037-.994-.43-1.63-1.096-2.204-.568-.49-1.272-.888-2.13-1.375a76.57 76.57 0 0 1-.835-.478c-.225-.131-.46-.264-.7-.399-.87-.49-1.799-1.014-2.533-1.64C7.371 9.945 6.62 8.82 6.56 7.176a5.85 5.85 0 0 1-.004-.138c-.01-.686-.59-1.301-1.188-.962a3.79 3.79 0 0 0-1.39 5.239 3.79 3.79 0 0 0 3.724 1.825.972.972 0 1 1 .235 1.93 5.71 5.71 0 0 1-4.043-1.031c-.184-.133-.45-.029-.45.198a3.792 3.792 0 0 0 7.32 1.393.972.972 0 1 1 1.809.714 5.754 5.754 0 0 1-1.822 2.427Z" clip-rule="evenodd" style="color: inherit;"></path></symbol></defs><use xlink:href="#cu3-icon-aiPrimary"></use></svg>